<?xml version="1.0" encoding="UTF-8" standalone="no"?>
<svg id="root-0" width="80.5mm" height="18.5mm" viewBox="0 0 80.5 18.5" version="1.1" xmlns="http://www.w3.org/2000/svg" xmlns:svg="http://www.w3.org/2000/svg">
  <!-- <g><rect width="100%" height="100%" x="0.0" y="0.0" fill="yellow"/></g> -->
  <g id="br-0" transform="translate(7.31 5.8)">
    <svg width="6.588mm" height="11.7mm"><rect width="6.588" height="11.7" x="0.0" y="0.0" fill="#dd001b" stroke="#000" stroke-width="0.035"/></svg>
  </g>
  <g id="br-1" transform="translate(13.898 5.8)">
    <svg width="6.588mm" height="11.7mm"><rect width="6.588" height="11.7" x="0.0" y="0.0" fill="#ebe541" stroke="#000" stroke-width="0.035"/></svg>
  </g>
  <g id="br-2" transform="translate(20.486 5.8)">
    <svg width="6.588mm" height="11.7mm"><rect width="6.588" height="11.7" x="0.0" y="0.0" fill="#a4cb3e" stroke="#000" stroke-width="0.035"/></svg>
  </g>
  <g id="br-3" transform="translate(27.074 5.8)">
    <svg width="6.588mm" height="11.7mm"><rect width="6.588" height="11.7" x="0.0" y="0.0" fill="#39b4e4" stroke="#000" stroke-width="0.035"/></svg>
  </g>
  <g id="br-4" transform="translate(33.662 5.8)">
    <svg width="6.588mm" height="11.7mm"><rect width="6.588" height="11.7" x="0.0" y="0.0" fill="#b4b6b5" stroke="#000" stroke-width="0.035"/></svg>
  </g>
  <g id="br-5" transform="translate(40.25 5.8)">
    <svg width="6.588mm" height="11.7mm"><rect width="6.588" height="11.7" x="0.0" y="0.0" fill="#e7751e" stroke="#000" stroke-width="0.035"/></svg>
  </g>
  <g id="br-6" transform="translate(46.838 5.8)">
    <svg width="6.588mm" height="11.7mm"><rect width="6.588" height="11.7" x="0.0" y="0.0" fill="#e96195" stroke="#000" stroke-width="0.035"/></svg>
  </g>
  <g id="br-7" transform="translate(53.426 5.8)">
    <svg width="6.588mm" height="11.7mm"><rect width="6.588" height="11.7" x="0.0" y="0.0" fill="#33aa43" stroke="#000" stroke-width="0.035"/></svg>
  </g>
  <g id="br-8" transform="translate(60.014 5.8)">
    <svg width="6.588mm" height="11.7mm"><rect width="6.588" height="11.7" x="0.0" y="0.0" fill="#f3b732" stroke="#000" stroke-width="0.035"/></svg>
  </g>
  <g id="br-9" transform="translate(66.602 5.8)">
    <svg width="6.588mm" height="11.7mm"><rect width="6.588" height="11.7" x="0.0" y="0.0" fill="#745d9c" stroke="#000" stroke-width="0.035"/></svg>
  </g>
  <g id="t-1" transform="translate(5.25 1)" >
    <rect width="10.0" height="5.8" x="0" y="0" rx="0" ry="0" fill="white" stroke="#000" stroke-width="0.035"/>
    <text x="5" y="5" text-anchor="middle" font-size="5">#</text>
  </g>
  <g id="t-2" transform="translate(15.25 1)" >
    <rect width="10.0" height="5.8" x="0" y="0" rx="0" ry="0" fill="white" stroke="#000" stroke-width="0.035"/>
    <text x="5" y="5" text-anchor="middle" font-size="5">#</text>
  </g>
  <g id="t-3" transform="translate(25.25 1)" >
    <rect width="10.0" height="5.8" x="0" y="0" rx="0" ry="0" fill="white" stroke="#000" stroke-width="0.035"/>
    <text x="5" y="5" text-anchor="middle" font-size="5">#</text>
  </g>
  <g id="t-4" transform="translate(35.25 1)" >
    <rect width="10.0" height="5.8" x="0" y="0" rx="0" ry="0" fill="white" stroke="#000" stroke-width="0.035"/>
    <text x="5" y="5" text-anchor="middle" font-size="5">#</text>
  </g>
  <g id="t-5" transform="translate(45.25 1)" >
    <rect width="10.0" height="5.8" x="0" y="0" rx="0" ry="0" fill="white" stroke="#000" stroke-width="0.035"/>
    <text x="5" y="5" text-anchor="middle" font-size="5">#</text>
  </g>
  <g id="t-6" transform="translate(55.25 1)" >
    <rect width="10.0" height="5.8" x="0" y="0" rx="0" ry="0" fill="white" stroke="#000" stroke-width="0.035"/>
    <text x="5" y="5" text-anchor="middle" font-size="5">#</text>
  </g>
  <g id="t-7" transform="translate(65.25 1)" >
    <rect width="10.0" height="5.8" x="0" y="0" rx="0" ry="0" fill="white" stroke="#000" stroke-width="0.035"/>
    <text x="5" y="5" text-anchor="middle" font-size="4">#</text>
  </g>
  <g id="body-0" transform="translate(1 1)">
    <rect width="78.5" height="16.5" x="0.0" y="0.0" rx="1" ry="1" fill="none" stroke="#000" stroke-width="0.035" />
  </g>
</svg>
