<svg xmlns="http://www.w3.org/2000/svg" width="16" height="16" fill="currentColor" class="bi bi-bucket-fill"><path d="M8 0a5.5 5.5 0 0 0-5.48 5H2a.5.5 0 0 0-.5.57l1.38 9.15A1.5 1.5 0 0 0 4.36 16h7.28a1.5 1.5 0 0 0 1.48-1.28l1.37-9.15A.5.5 0 0 0 14 5h-.52A5.5 5.5 0 0 0 8 0zm0 1a4.5 4.5 0 0 1 4.47 4H3.53A4.5 4.5 0 0 1 8 1zm3.21 5c.05 0 .1.02.13.06l1.6 1.6c.04.03.06.08.06.13s-.02.1-.06.14l-.26.26a.19.19 0 0 1-.27 0l-.4-.4-3.47 3.47.27.27-.53.53 1.06 1.07-.8.8a3.5 3.5 0 0 1-3.08 1.04 3.59 3.59 0 0 1-1.04-.27l-.08-.04-.04-.08-.08-.23A4.96 4.96 0 0 1 4 13.01c0-.98.36-1.84 1.08-2.55l.8-.8 1.06 1.06.53-.53.27.27 3.47-3.47-.4-.4a.19.19 0 0 1 0-.27l.27-.26A.17.17 0 0 1 11.2 6z"/></svg>