<svg xmlns="http://www.w3.org/2000/svg" xml:space="preserve" style="enable-background:new 0 0 487.3 487.3" viewBox="0 0 487.3 487.3"><path d="M487.2 69.7a23.4 23.4 0 0 1-23.4 23.4h-322a23.4 23.4 0 0 1 0-46.8h322.1a23.4 23.4 0 0 1 23.3 23.4zm-23.3 92.6H141.8a23.4 23.4 0 0 0 0 46.8h322.1a23.4 23.4 0 0 0 0-46.8zm0 116H141.8a23.4 23.4 0 0 0 0 46.8h322.1a23.4 23.4 0 0 0 0-46.8zm0 116H141.8a23.4 23.4 0 0 0 0 46.8h322.1a23.4 23.4 0 0 0 0-46.8zM38.9 30.8a38.9 38.9 0 1 0 0 77.8 38.9 38.9 0 0 0 0-77.8zm0 116a38.9 38.9 0 1 0 0 77.8 38.9 38.9 0 0 0 0-77.8zm0 116a38.9 38.9 0 1 0 0 77.8 38.9 38.9 0 0 0 0-77.8zm0 115.9a38.9 38.9 0 1 0 0 77.8 38.9 38.9 0 0 0 0-77.8z"/></svg>