<svg xmlns="http://www.w3.org/2000/svg" width="380.7" height="380.7" version="1.2" viewBox="0 0 285.5 285.5"><path d="M1 1v57h11.7v8.4H1v13.2h11.7V88H1v197.4h284.4V88h-11.7v-8.4h11.7V66.4h-11.7v-8.5h11.7V1H202A65.7 65.7 0 0 1 84.3 1Zm87.7 0A62.1 62.1 0 0 0 187 15.2c4.3-4.2 7.8-9 10.7-14.2Zm54.5 78.6a63.7 63.7 0 0 1 28.2 6.3 66.7 66.7 0 0 1 32.7 34.4 68.7 68.7 0 0 1 5 25.2 68.7 68.7 0 0 1-6.3 28.2 66.6 66.6 0 0 1-43.6 35.7 67 67 0 0 1-44.2-4.3 66.6 66.6 0 0 1-34.9-40.5 73.8 73.8 0 0 1-2.7-15.9 63.6 63.6 0 0 1 4.9-28.4A66.7 66.7 0 0 1 115 85.9a66.6 66.6 0 0 1 28.2-6.3zm108.5 172.3a4.7 4.7 0 0 1 1.7.4 4.3 4.3 0 0 1 2 1.6 4 4 0 0 1 .7 1.6 4.4 4.4 0 0 1-1.2 4 4.4 4.4 0 0 1-4 1.3 4.7 4.7 0 0 1-1.7-.7 4.6 4.6 0 0 1-1.6-2 4.4 4.4 0 0 1 .4-4.2 4.2 4.2 0 0 1 1.2-1.2 4.6 4.6 0 0 1 2.5-.8zm-239 2.5h41v8.5h-41Z" style="fill:#000;fill-opacity:1;fill-rule:nonzero;stroke:none"/><path d="M143.2 94.4a49.9 49.9 0 0 0-28.4 8.6 51 51 0 0 0 0 85 52.5 52.5 0 0 0 28.4 8.6 50 50 0 0 0 28.4-8.6 51.6 51.6 0 0 0 21.7-52.5 51.1 51.1 0 0 0-50.1-41.1zm-25.4 21a5 5 0 0 1 2.6.9 4.8 4.8 0 1 1-2.6-.8zm27.8 16.7a13.2 13.2 0 0 1 5.4 1.1 13.3 13.3 0 0 1 4.5 3 15 15 0 0 1 3 4.6 14.1 14.1 0 0 1-2 14.1 14 14 0 0 1-15 4.5 14 14 0 0 1-3.6-25 14.3 14.3 0 0 1 7.7-2.3zm36.3 2a4.6 4.6 0 0 1 2.7.8 5 5 0 0 1 1.3 1.3 5 5 0 0 1 .8 2.6 4.7 4.7 0 0 1-1.4 3.4 4.8 4.8 0 0 1-6 .6 4.6 4.6 0 0 1-1.3-1.3 5 5 0 0 1-.7-1.7 4.7 4.7 0 0 1 .2-2.8 5 5 0 0 1 2.6-2.6 5.1 5.1 0 0 1 1.8-.3zm-43.4 46.6a4.7 4.7 0 0 1 2.7.8l.7.6a4.8 4.8 0 1 1-6.8 6.8 4.8 4.8 0 0 1 1.6-7.8 4.5 4.5 0 0 1 1.8-.4z" style="fill:#000;fill-opacity:1;fill-rule:nonzero;stroke:none"/></svg>