<svg xmlns="http://www.w3.org/2000/svg" xml:space="preserve" style="enable-background:new 0 0 512 512" viewBox="0 0 512 512"><path d="M511.08 247.12a8.53 8.53 0 0 0-16.62-.91c-17.9 63.43-123.4 107.74-124.46 108.18a8.53 8.53 0 0 0 6.52 15.77c.22-.09 1.38-.57 3.33-1.43l33.73 33.08a8.53 8.53 0 0 0 11.08 12.89c52.53-37.94 73.26-81.18 81.4-110.77 8.93-32.43 5.19-55.83 5.02-56.81z" style="fill:#00723e"/><path d="M397.13 360.56H34.43C15.46 360.56 0 376.01 0 395s15.45 34.43 34.44 34.43h362.7A34.48 34.48 0 0 0 431.56 395a34.48 34.48 0 0 0-34.44-34.44z" style="fill:#00a35c"/><path d="M397.13 398.3H34.43c-13.38 0-25-7.69-30.7-18.87A34.22 34.22 0 0 0 0 395a34.48 34.48 0 0 0 34.44 34.43h362.7A34.48 34.48 0 0 0 431.56 395c0-5.6-1.35-10.9-3.74-15.57a34.46 34.46 0 0 1-30.7 18.86z" style="fill:#00723e"/><path d="M350.07 308.75h-277c-18.99 0-34.44 15.45-34.44 34.44s15.45 34.43 34.44 34.43h277a34.48 34.48 0 0 0 34.44-34.43 34.48 34.48 0 0 0-34.44-34.44z" style="fill:#00a35c"/><path d="M350.07 345.84h-277a34.46 34.46 0 0 1-30.54-18.54 34.2 34.2 0 0 0-3.9 15.89 34.48 34.48 0 0 0 34.44 34.43h277a34.48 34.48 0 0 0 34.44-34.43 34.2 34.2 0 0 0-3.9-15.9 34.46 34.46 0 0 1-30.54 18.55z" style="fill:#00723e"/><path d="M180.28 140.71H124.4l-9.97-8.84a8.53 8.53 0 1 0-11.32 12.77l5.5 4.88-5.78 5.6a8.53 8.53 0 1 0 11.88 12.26l9.91-9.6h55.66a8.53 8.53 0 0 0 0-17.07z" style="fill:#f94851"/><path d="M338.21 98.18c-22.2-13.76-51.05-15.61-76.35-15.61-50.98 0-97.64 17.96-104.02 40.03-1.38 4.77-1.41 12.6 6.26 22.8 12.21 16.24 39.8 32.68 68.9 32.68 27.52 0 51.72-12.73 64.12-20.67 11.42 26.2 13.4 48.5 5.9 66.4-8.97 21.38-29.41 30.38-34.33 32.28H123.68a34.9 34.9 0 0 0-34.86 34.86 34.9 34.9 0 0 0 34.86 34.86h144.4c50.58 0 93.44-36.03 101.9-85.67 2.91-17.06 4.27-36.96 4.27-62.63 0-38.34-11.79-64.3-36.04-79.33z" style="fill:#00a35c"/><path d="m374.18 172.8-.03-1.11c-1.16-35.16-12.94-59.25-35.94-73.5-22.2-13.77-51.05-15.62-76.35-15.62-4.6 0-9.17.15-13.67.43 20.24 1.08 41.17 4.63 58.19 15.18 24.25 15.04 36.03 40.98 36.03 79.33 0 25.67-1.35 45.57-4.26 62.63l-.08.45a66.56 66.56 0 0 1-57.72 54.44c-4.03.47-8.12.72-12.27.72h-144.4a34.9 34.9 0 0 1-31.45-19.83 34.68 34.68 0 0 0-3.4 16.03c.53 18.98 16.57 33.86 35.56 33.86h143.69c50.58 0 93.44-36.03 101.9-85.67 2.91-17.06 4.27-36.96 4.27-62.63 0-1.6-.03-3.16-.07-4.7z" style="fill:#00723e"/><path d="M233 178.08c27.52 0 51.72-12.73 64.12-20.67 4.2 9.65 7.12 18.76 8.76 27.32 3.73-16.19.82-35.4-8.76-57.39-12.4 7.94-36.6 20.67-64.13 20.67-29.1 0-56.68-16.43-68.89-32.67-.45-.6-.86-1.18-1.26-1.76a25.55 25.55 0 0 0-5 9.02c-1.38 4.77-1.41 12.6 6.26 22.81 12.2 16.24 39.8 32.67 68.9 32.67z" style="fill:#00723e"/><path d="M225.18 133.26a9.89 9.89 0 0 1-9.88-9.87 9.88 9.88 0 0 1 19.77 0 9.89 9.89 0 0 1-9.89 9.87z" style="fill:#2b2b2b"/></svg>