<?xml version="1.0" encoding="UTF-8"?>
<!-- Generator: Adobe Illustrator 21.0.0, SVG Export Plug-In . SVG Version: 6.00 Build 0)  -->
<svg version="1.1" id="Layer_1" xmlns="http://www.w3.org/2000/svg" xmlns:xlink="http://www.w3.org/1999/xlink" x="0px" y="0px" viewBox="0 0 288 100.2" style="enable-background:new 0 0 288 100.2;" xml:space="preserve">
<style type="text/css">
	.st0{fill:#005288;}
	.st1{fill:#00AAE7;}
</style>
<title>Artboard 1</title>
<polygon class="st0" points="65.6,64.6 65.6,71.2 56.2,71.2 56.2,99.5 49.3,99.5 49.3,71.2 39.9,71.2 39.9,64.6 "/>
<path class="st0" d="M89,99.5l-2.1-6.3H73l-2.1,6.3h-7.4l12.2-34.9h8.5l12.3,34.9H89z M75.2,86.8h9.6L80,72.5L75.2,86.8z"/>
<polygon class="st0" points="120.6,64.6 127.5,64.6 127.5,99.5 122.2,99.5 107.2,78.1 107.2,99.5 100.4,99.5 100.4,64.6 105.6,64.6   120.6,85.9 "/>
<path class="st0" d="M146.6,64.6c4.5-0.1,8.9,1.7,12,5c6.5,7,6.5,17.8,0,24.8c-3.1,3.3-7.5,5.1-12,5h-13.9V64.6H146.6z M146.6,92.9  c2.8,0.1,5.5-1,7.4-3c1.9-2.2,3-5,2.8-7.9c0.1-2.9-0.9-5.7-2.8-7.8c-1.9-2-4.6-3.1-7.4-3h-7v21.8L146.6,92.9z"/>
<path class="st0" d="M193,89.4c0.1,2.8-1.1,5.4-3.1,7.3c-2.1,1.9-4.9,2.9-7.7,2.8h-14.9V64.6H181c2.8-0.1,5.5,0.9,7.5,2.8  c2,1.8,3.1,4.3,3.1,7c0.1,2.7-1.1,5.3-3.3,7C191.3,82.9,193.1,86,193,89.4 M174.1,71v7.7h6.9c2.1,0,3.8-1.7,3.8-3.8  c0-2.1-1.7-3.8-3.8-3.8H174.1z M182.1,93.1c2.3-0.1,4-2,3.9-4.3c-0.1-2.1-1.8-3.8-3.9-3.9h-7.9v8.2H182.1z"/>
<path class="st0" d="M243,99.5l-7-12.1h-5.2v12.1h-6.9V64.6h14c6.4,0,11.6,5.1,11.6,11.5c-0.1,4.4-2.7,8.4-6.7,10.2l7.7,13.2  L243,99.5z M230.7,71v10.3h7.1c2.9-0.2,5-2.7,4.8-5.6c-0.2-2.6-2.2-4.6-4.8-4.8H230.7z"/>
<path class="st0" d="M288,80.7v2.7c0.2,4.5-1.6,8.9-4.8,12.1c-3.3,3.1-7.8,4.8-12.4,4.6c-5,0.2-9.8-1.7-13.4-5.2  c-3.5-3.4-5.4-8-5.3-12.9c0-10.1,8.3-18.3,18.4-18.2c6.1,0,11.8,3.1,15.1,8.1l-5.9,3.4c-1.6-2.8-5.2-4.8-9.4-4.8  c-3.1-0.1-6.1,1.1-8.2,3.3c-4.3,4.6-4.3,11.8,0,16.4c2.3,2.2,5.5,3.3,8.7,3.2c5.3,0,8.9-2.5,10.2-6.6h-10.5v-6.1L288,80.7z"/>
<rect x="197.2" y="64.6" class="st1" width="21.4" height="6.6"/>
<rect x="197.2" y="92.9" class="st1" width="21.4" height="6.6"/>
<rect x="197.2" y="78.7" class="st1" width="21.4" height="6.6"/>
<polygon class="st0" points="51,56.6 38.1,21.7 41.9,21.7 52.8,51.9 63.6,21.7 67.4,21.7 54.6,56.6 "/>
<polygon class="st0" points="73.9,53.3 90.8,53.3 90.8,56.6 70.4,56.6 70.4,21.7 90.6,21.7 90.6,25 73.9,25 73.9,37.3 89.3,37.3   89.3,40.6 73.9,40.6 "/>
<path class="st0" d="M115.2,56.6l-8.2-14h-9.8v14h-3.5V21.7h13.9c5.8,0,10.4,4.7,10.5,10.5c0,2.3-0.7,4.5-2.1,6.3  c-1.3,1.8-3.2,3.1-5.4,3.7l8.5,14.4L115.2,56.6z M97.3,25v14.3h10.5c1.9,0,3.7-0.7,4.9-2.1c1.3-1.4,2-3.2,2-5.1c0-1.9-0.7-3.7-2-5.1  c-1.3-1.4-3.1-2.1-4.9-2.1L97.3,25z"/>
<polygon class="st0" points="124.9,53.3 138,53.3 136.8,56.6 121.4,56.6 121.4,21.7 124.9,21.7 "/>
<path class="st0" d="M166.5,56.6l-3.2-8.6h-16.5l-3.2,8.6h-3.7l13.4-34.9h3.6l13.4,34.9H166.5z M148,44.7h14L155,26L148,44.7z"/>
<polygon class="st0" points="195.6,21.7 199.1,21.7 199.1,56.6 196.1,56.6 176.6,28.2 176.6,56.6 173.2,56.6 173.2,21.7 176.1,21.7   195.6,50.1 "/>
<path class="st0" d="M215.8,21.7c4.5-0.1,8.8,1.7,11.8,5.1c3.1,3.3,4.8,7.8,4.7,12.3c0.1,4.6-1.6,9-4.7,12.4c-3,3.3-7.3,5.1-11.8,5  h-13.5V21.7H215.8z M215.8,53.3c3.6,0.1,7-1.4,9.4-4.1c2.5-2.8,3.8-6.4,3.7-10.1c0.1-3.7-1.2-7.3-3.7-10c-2.3-2.7-5.8-4.2-9.4-4.1  h-10v28.3H215.8z"/>
<path class="st1" d="M52.2,37.5c1.3-3.1,2.9-7.8,4.2-11C55.5,10.9,42-1,26.4,0.1c-5.5,0.4-10.7,2.3-15.1,5.6c4-0.3,7.7,1,9.7,3.9  c0.1,0.1,0.1,0.2,0.2,0.3C31.4,6,42.8,11.1,46.7,21.3c0.6,1.7,1,3.4,1.2,5.2L52.2,37.5z"/>
<path class="st1" d="M28.3,48C17.4,48,8.5,39.2,8.5,28.3c0-7.9,4.8-15.1,12.1-18.2c-4.1-2-10.2-1.9-15.3,1.6  C-3.8,24.3-0.9,42,11.7,51.2c10,7.2,23.5,7.2,33.4-0.2l-3.5-8.2C38,46.2,33.2,48,28.3,48z"/>
</svg>