<?xml version="1.0" encoding="UTF-8" standalone="no"?>
<svg
   xmlns:dc="http://purl.org/dc/elements/1.1/"
   xmlns:cc="http://creativecommons.org/ns#"
   xmlns:rdf="http://www.w3.org/1999/02/22-rdf-syntax-ns#"
   xmlns:svg="http://www.w3.org/2000/svg"
   xmlns="http://www.w3.org/2000/svg"
   viewBox="0 0 567 156"
   height="156"
   width="567"
   xml:space="preserve"
   id="svg29"
   version="1.1"><metadata
     id="metadata35"><rdf:RDF><cc:Work
         rdf:about=""><dc:format>image/svg+xml</dc:format><dc:type
           rdf:resource="http://purl.org/dc/dcmitype/StillImage" /><dc:title></dc:title></cc:Work></rdf:RDF></metadata><defs
     id="defs33"><clipPath
       id="clipPath45"
       clipPathUnits="userSpaceOnUse"><path
         id="path43"
         d="M 0,612 H 792 V 0 H 0 Z" /></clipPath></defs><g
     transform="matrix(1.3333333,0,0,-1.3333333,0,156)"
     id="g37"><g
       transform="translate(-166.0625,-246.9454)"
       id="g39"><g
         clip-path="url(#clipPath45)"
         id="g41"><g
           transform="translate(166.0625,273.3691)"
           id="g47"><path
             id="path49"
             style="fill:#231f20;fill-opacity:1;fill-rule:nonzero;stroke:none"
             d="m 0,0 c 3.942,-2.076 12.016,-3.939 20.131,-3.939 19.813,0 29.806,8.21 31.59,16.786 1.799,8.632 -3.825,13.286 -16.314,16.655 -9.508,2.563 -13.53,4.574 -12.647,8.81 0.675,3.234 5.563,6.535 13.648,6.655 8.888,0.127 12.253,-2.183 14.76,-3.235 l 5.456,8.724 C 52.753,52.095 47.017,53.448 38.426,53.448 22.619,53.448 10.901,46.61 8.983,37.405 7.196,28.816 14.22,24.111 26.393,21.094 35.776,18.745 38.806,16.293 37.956,12.212 37.012,7.672 31.54,4.553 23.001,4.684 15.66,4.805 9.267,6.234 5.253,9.221 Z" /></g><g
           transform="translate(238.8667,309.8838)"
           id="g51"><path
             id="path53"
             style="fill:#231f20;fill-opacity:1;fill-rule:nonzero;stroke:none"
             d="m 0,0 c 1.145,0.172 0.989,0.365 4.098,0.365 6.976,0 11.529,-1.151 10.943,-5.507 -0.614,-4.445 -5.11,-7.013 -12.817,-7.013 -1.161,0 -2.378,-0.083 -2.992,-0.034 -0.618,0.034 -1.066,-0.037 -1.748,0.108 z m -18.656,-34.426 h 11.487 l 3.136,15.053 c 1.404,-0.28 1.733,-0.157 3.846,-0.157 7.556,0 14.688,1.185 19.437,4.234 3.526,2.266 6.542,5.504 7.474,9.977 C 27.7,-0.689 25.276,3.458 22.147,4.942 18.705,6.579 13.782,7.747 6.38,7.747 -0.942,7.747 -6.251,7.196 -10.087,6.72 Z" /></g><g
           transform="translate(302.8496,300.5332)"
           id="g55"><path
             id="path57"
             style="fill:#231f20;fill-opacity:1;fill-rule:nonzero;stroke:none"
             d="m 0,0 -22.137,0.064 1.801,8.529 h 23.48 l 1.642,7.882 -35.996,0.082 -8.529,-41.132 37.175,-0.042 1.487,7.256 -24.84,0.039 2.061,9.898 h 22.309 z" /></g><g
           transform="translate(348.3882,285.2559)"
           id="g59"><path
             id="path61"
             style="fill:#231f20;fill-opacity:1;fill-rule:nonzero;stroke:none"
             d="m 0,0 c -3.127,-1.011 -8.142,-1.771 -12.583,-1.771 -13.08,0 -17.796,5.266 -16.109,13.371 1.9,9.116 10.355,13.496 22.52,13.496 4.829,0 8.381,-1.205 10.995,-2.172 l 4.103,7.242 C 6.913,31.047 1.671,32.45 -5.5,32.45 c -18.017,0 -32.7,-8.681 -35.262,-20.987 -2.506,-12.034 6.806,-21.346 25.262,-21.07 7.247,0.111 13.692,1.701 16.376,2.65 z" /></g><g
           transform="translate(367.582,275.6562)"
           id="g63"><path
             id="path65"
             style="fill:#231f20;fill-opacity:1;fill-rule:nonzero;stroke:none"
             d="m 0,0 h 11.872 l 6.886,33.054 h 16.557 l 1.673,8.026 -44.832,-0.028 -1.684,-8.089 16.321,0.02 z" /></g><g
           transform="translate(465.0078,294.3965)"
           id="g67"><path
             id="path69"
             style="fill:#231f20;fill-opacity:1;fill-rule:nonzero;stroke:none"
             d="m 0,0 c 2.734,3.984 5.548,7.855 7.923,12.002 l 0.661,1.132 C 9.223,11.063 9.32,10.936 10.041,8.416 L 12.421,0 Z m 13.508,-7.314 3.105,-11.52 H 29.907 L 18.337,22.405 3.824,22.494 -24.344,-19.023 h 12.801 l 7.283,11.625 z" /></g><g
           transform="translate(418.4102,310.3413)"
           id="g71"><path
             id="path73"
             style="fill:#231f20;fill-opacity:1;fill-rule:nonzero;stroke:none"
             d="M 0,0 C 1.774,0.209 4.074,0.103 5.746,0.161 12.264,0.382 15.761,-2.562 14.52,-6.097 13.451,-9.14 10.017,-11.125 3.564,-11.08 l -5.856,0.043 z m -18.52,-34.646 h 11.41 l 3.446,16.555 8.08,-0.119 c 0.031,0 1.436,-4.176 2.949,-7.989 1.589,-3.945 2.326,-7.515 2.903,-8.724 L 22.785,-35 c -2.318,6.098 -5.304,13.696 -7.329,19.938 l 0.442,0.17 c 4.352,1.968 9.497,5.165 10.635,10.632 0.742,3.57 -0.635,6.058 -3.042,7.872 C 20.392,5.926 15.354,7.101 7.353,7.101 1.264,7.101 -5.939,6.76 -9.813,6.25 Z" /></g><g
           transform="translate(499.7168,278.625)"
           id="g75"><path
             id="path77"
             style="fill:#231f20;fill-opacity:1;fill-rule:nonzero;stroke:none"
             d="M 0,0 C 0.133,0 0.263,0.006 0.381,0.016 0.502,0.023 0.613,0.047 0.709,0.087 0.807,0.129 0.879,0.188 0.941,0.273 0.997,0.357 1.029,0.469 1.036,0.617 1.039,0.74 1.02,0.838 0.969,0.914 0.924,0.983 0.861,1.041 0.781,1.08 0.705,1.121 0.611,1.146 0.51,1.164 0.405,1.176 0.309,1.185 0.208,1.185 L -0.594,1.183 -0.631,-0.001 Z M 0.317,1.656 C 0.783,1.658 1.121,1.57 1.338,1.395 1.556,1.218 1.654,0.952 1.641,0.596 1.633,0.262 1.528,0.014 1.326,-0.141 1.125,-0.301 0.879,-0.391 0.59,-0.424 l 1.056,-1.64 -0.647,-0.002 -1.005,1.593 -0.64,-0.002 -0.056,-1.596 -0.607,-10e-4 0.125,3.724 z m -2.84,-2.951 c 0.13,-0.332 0.311,-0.623 0.55,-0.867 0.239,-0.24 0.524,-0.438 0.85,-0.576 0.332,-0.136 0.695,-0.203 1.082,-0.201 0.389,0 0.747,0.07 1.084,0.207 0.338,0.14 0.635,0.339 0.89,0.58 0.254,0.246 0.455,0.539 0.604,0.872 0.152,0.329 0.236,0.692 0.25,1.085 C 2.799,0.188 2.738,0.543 2.609,0.871 2.484,1.204 2.301,1.486 2.063,1.729 1.824,1.971 1.543,2.162 1.215,2.302 0.885,2.436 0.531,2.504 0.143,2.504 -0.246,2.502 -0.611,2.432 -0.951,2.295 -1.287,2.154 -1.588,1.963 -1.841,1.719 -2.098,1.475 -2.296,1.191 -2.449,0.857 -2.601,0.529 -2.684,0.174 -2.695,-0.21 -2.71,-0.603 -2.652,-0.965 -2.523,-1.295 m -0.473,2.344 c 0.193,0.389 0.446,0.724 0.761,1.009 0.318,0.284 0.68,0.512 1.092,0.671 0.411,0.166 0.848,0.249 1.303,0.25 C 0.62,2.98 1.045,2.899 1.441,2.736 1.842,2.579 2.188,2.354 2.482,2.07 2.775,1.787 3.004,1.453 3.172,1.066 3.333,0.678 3.409,0.262 3.393,-0.188 3.378,-0.65 3.272,-1.075 3.085,-1.463 2.893,-1.855 2.639,-2.197 2.328,-2.482 2.014,-2.771 1.654,-2.998 1.244,-3.156 c -0.408,-0.16 -0.842,-0.24 -1.299,-0.241 -0.457,-0.002 -0.886,0.076 -1.288,0.233 -0.403,0.157 -0.747,0.381 -1.048,0.67 -0.295,0.281 -0.522,0.622 -0.691,1.014 -0.164,0.386 -0.237,0.812 -0.225,1.273 0.017,0.45 0.119,0.866 0.311,1.256" /></g><g
           transform="translate(333.2646,358.7314)"
           id="g79"><path
             id="path81"
             style="fill:#61849c;fill-opacity:1;fill-rule:nonzero;stroke:none"
             d="m 0,0 -5.053,-6.536 c 9.152,0.52 18.457,0.876 27.88,1.057 7.03,0.136 13.925,0.17 20.682,0.108 l 7.92,9.35 C 33.314,3.134 17.021,1.891 0,0" /></g><g
           transform="translate(388.1182,362.8022)"
           id="g83"><path
             id="path85"
             style="fill:#9ba163;fill-opacity:1;fill-rule:nonzero;stroke:none"
             d="m 0,0 -8.126,-9.479 c 19.932,-0.27 38.605,-1.374 55.704,-3.207 L 64.059,0.008 C 43.751,0.83 22.595,0.963 0,0" /></g><g
           transform="translate(542.8379,314.2471)"
           id="g87"><path
             id="path89"
             style="fill:#e58310;fill-opacity:1;fill-rule:nonzero;stroke:none"
             d="m 0,0 39.682,11.434 c -9.59,9.429 -26.659,17.785 -49.259,24.44 L -39.773,22.415 C -24.904,17.667 -5.933,6.507 0,0" /></g><g
           transform="translate(439.3623,349.7061)"
           id="g91"><path
             id="path93"
             style="fill:#fccf34;fill-opacity:1;fill-rule:nonzero;stroke:none"
             d="m 0,0 c 22.054,-2.533 41.39,-6.292 59.81,-11.552 l 30,13.137 c -13.797,3.828 -29.504,7.04 -46.706,9.51 -8.476,0.759 -17.255,1.345 -26.469,1.77 z" /></g><g
           transform="translate(330.1592,358.5952)"
           id="g95"><path
             id="path97"
             style="fill:#7559b2;fill-opacity:1;fill-rule:nonzero;stroke:none"
             d="m 0,0 c -34.427,-3.962 -80.923,-13.046 -110.524,-20.88 -0.175,-0.328 -0.167,-0.333 -0.183,-0.391 29.374,6.352 71.461,12.609 105.752,14.693 z" /></g><g
           transform="translate(545.2305,311.2524)"
           id="g99"><path
             id="path101"
             style="fill:#b4131d;fill-opacity:1;fill-rule:nonzero;stroke:none"
             d="m 0,0 c 0,0 26.949,-39.09 -97.15,-64.307 0,0 177.65,23.517 137.132,75.367 z" /></g></g></g></g></svg>